<svg xmlns="http://www.w3.org/2000/svg" viewBox="0 0 100 100" preserveAspectRatio="xMidYMid" width="15" height="15" style="shape-rendering: auto; display: block; background: rgb(218, 218, 218);" xmlns:xlink="http://www.w3.org/1999/xlink"><g><g transform="rotate(0 50 50)">
  <rect fill="#fe718d" height="12" width="6" ry="6" rx="3" y="24" x="47">
    <animate repeatCount="indefinite" begin="-1.6369047619047616s" dur="1.7857142857142856s" keyTimes="0;1" values="1;0" attributeName="opacity"></animate>
  </rect>
</g><g transform="rotate(30 50 50)">
  <rect fill="#fe718d" height="12" width="6" ry="6" rx="3" y="24" x="47">
    <animate repeatCount="indefinite" begin="-1.488095238095238s" dur="1.7857142857142856s" keyTimes="0;1" values="1;0" attributeName="opacity"></animate>
  </rect>
</g><g transform="rotate(60 50 50)">
  <rect fill="#fe718d" height="12" width="6" ry="6" rx="3" y="24" x="47">
    <animate repeatCount="indefinite" begin="-1.3392857142857142s" dur="1.7857142857142856s" keyTimes="0;1" values="1;0" attributeName="opacity"></animate>
  </rect>
</g><g transform="rotate(90 50 50)">
  <rect fill="#fe718d" height="12" width="6" ry="6" rx="3" y="24" x="47">
    <animate repeatCount="indefinite" begin="-1.1904761904761905s" dur="1.7857142857142856s" keyTimes="0;1" values="1;0" attributeName="opacity"></animate>
  </rect>
</g><g transform="rotate(120 50 50)">
  <rect fill="#fe718d" height="12" width="6" ry="6" rx="3" y="24" x="47">
    <animate repeatCount="indefinite" begin="-1.0416666666666665s" dur="1.7857142857142856s" keyTimes="0;1" values="1;0" attributeName="opacity"></animate>
  </rect>
</g><g transform="rotate(150 50 50)">
  <rect fill="#fe718d" height="12" width="6" ry="6" rx="3" y="24" x="47">
    <animate repeatCount="indefinite" begin="-0.8928571428571428s" dur="1.7857142857142856s" keyTimes="0;1" values="1;0" attributeName="opacity"></animate>
  </rect>
</g><g transform="rotate(180 50 50)">
  <rect fill="#fe718d" height="12" width="6" ry="6" rx="3" y="24" x="47">
    <animate repeatCount="indefinite" begin="-0.744047619047619s" dur="1.7857142857142856s" keyTimes="0;1" values="1;0" attributeName="opacity"></animate>
  </rect>
</g><g transform="rotate(210 50 50)">
  <rect fill="#fe718d" height="12" width="6" ry="6" rx="3" y="24" x="47">
    <animate repeatCount="indefinite" begin="-0.5952380952380952s" dur="1.7857142857142856s" keyTimes="0;1" values="1;0" attributeName="opacity"></animate>
  </rect>
</g><g transform="rotate(240 50 50)">
  <rect fill="#fe718d" height="12" width="6" ry="6" rx="3" y="24" x="47">
    <animate repeatCount="indefinite" begin="-0.4464285714285714s" dur="1.7857142857142856s" keyTimes="0;1" values="1;0" attributeName="opacity"></animate>
  </rect>
</g><g transform="rotate(270 50 50)">
  <rect fill="#fe718d" height="12" width="6" ry="6" rx="3" y="24" x="47">
    <animate repeatCount="indefinite" begin="-0.2976190476190476s" dur="1.7857142857142856s" keyTimes="0;1" values="1;0" attributeName="opacity"></animate>
  </rect>
</g><g transform="rotate(300 50 50)">
  <rect fill="#fe718d" height="12" width="6" ry="6" rx="3" y="24" x="47">
    <animate repeatCount="indefinite" begin="-0.1488095238095238s" dur="1.7857142857142856s" keyTimes="0;1" values="1;0" attributeName="opacity"></animate>
  </rect>
</g><g transform="rotate(330 50 50)">
  <rect fill="#fe718d" height="12" width="6" ry="6" rx="3" y="24" x="47">
    <animate repeatCount="indefinite" begin="0s" dur="1.7857142857142856s" keyTimes="0;1" values="1;0" attributeName="opacity"></animate>
  </rect>
</g><g></g></g><!-- [ldio] generated by https://loading.io --></svg>